<?xml version="1.0" ?><svg id="Outline" viewBox="0 0 512 512" xmlns="http://www.w3.org/2000/svg"><defs><style>.cls-1{fill:#fff;}</style></defs><path class="cls-1" d="M356.66,244.66H155.33a11.34,11.34,0,0,0,0,22.68H356.66a11.34,11.34,0,0,0,0-22.68Z"/><path class="cls-1" d="M356.66,176H155.33a11.34,11.34,0,0,0,0,22.68H356.66a11.34,11.34,0,0,0,0-22.68Z"/><path class="cls-1" d="M356.66,313.29H155.33a11.34,11.34,0,0,0,0,22.68H356.66a11.34,11.34,0,0,0,0-22.68Z"/><path class="cls-1" d="M256,58.65c-108.38,0-196.56,88.18-196.56,196.56S147.62,451.77,256,451.77,452.56,363.6,452.56,255.21,364.38,58.65,256,58.65Zm0,370.45c-95.88,0-173.88-78-173.88-173.89S160.12,81.33,256,81.33s173.88,78,173.88,173.88S351.88,429.1,256,429.1Z"/></svg>
